<?xml version="1.0" encoding="UTF-8"?> <svg xmlns="http://www.w3.org/2000/svg" width="201" height="201" viewBox="0 0 201 201" fill="none"><path d="M101.795 0.0078125H101.798C156.704 0.703074 201 45.4288 201 100.5C201 156.005 156.005 201 100.5 201C83.1756 201 66.8745 196.614 52.6455 188.895C51.1234 188.069 49.3553 187.822 47.6953 188.259L13.3545 197.293C7.78062 198.759 2.70465 193.652 4.20508 188.087L13.2959 154.371C13.7531 152.675 13.4948 150.864 12.6328 149.315C4.58544 134.861 0 118.216 0 100.5C0 44.9954 44.9954 0 100.5 0H100.503L101.795 0.0078125ZM100.5 35.5C64.6015 35.5 35.5 64.6015 35.5 100.5C35.5 136.399 64.6015 165.5 100.5 165.5C136.399 165.5 165.5 136.399 165.5 100.5C165.5 64.6015 136.399 35.5 100.5 35.5Z" fill="#25222B"></path></svg> 